<svg width="1440" height="900" viewBox="0 0 1440 900" fill="none" xmlns="http://www.w3.org/2000/svg">
<path d="M1283.29 200.839C1325.03 200.839 1358.86 167.005 1358.86 125.27C1358.86 83.5339 1325.03 49.7004 1283.29 49.7004C1241.55 49.7004 1207.72 83.5339 1207.72 125.27C1207.72 167.005 1241.55 200.839 1283.29 200.839Z" fill="#F2F2F2"/>
<path d="M1283.29 69.6621C1285.65 69.6621 1287.57 67.747 1287.57 65.3846C1287.57 63.0222 1285.65 61.1071 1283.29 61.1071C1280.93 61.1071 1279.01 63.0222 1279.01 65.3846C1279.01 67.747 1280.93 69.6621 1283.29 69.6621Z" fill="black" fill-opacity="0.1"/>
<path d="M1223.4 129.547C1225.77 129.547 1227.68 127.632 1227.68 125.27C1227.68 122.907 1225.77 120.992 1223.4 120.992C1221.04 120.992 1219.13 122.907 1219.13 125.27C1219.13 127.632 1221.04 129.547 1223.4 129.547Z" fill="black" fill-opacity="0.1"/>
<path d="M1343.17 129.547C1345.54 129.547 1347.45 127.632 1347.45 125.27C1347.45 122.907 1345.54 120.992 1343.17 120.992C1340.81 120.992 1338.9 122.907 1338.9 125.27C1338.9 127.632 1340.81 129.547 1343.17 129.547Z" fill="black" fill-opacity="0.1"/>
<path d="M1283.29 189.432C1285.65 189.432 1287.57 187.517 1287.57 185.154C1287.57 182.792 1285.65 180.877 1283.29 180.877C1280.93 180.877 1279.01 182.792 1279.01 185.154C1279.01 187.517 1280.93 189.432 1283.29 189.432Z" fill="black" fill-opacity="0.1"/>
<path fill-rule="evenodd" clip-rule="evenodd" d="M1283.29 73.9396L1286.14 123.844H1280.44L1283.29 73.9396Z" fill="#AFB9C5"/>
<path fill-rule="evenodd" clip-rule="evenodd" d="M1308.52 150.505L1282.31 128.324L1286.34 124.291L1308.52 150.505Z" fill="#AFB9C5"/>
<path d="M1283.29 130.973C1286.44 130.973 1288.99 128.419 1288.99 125.269C1288.99 122.12 1286.44 119.566 1283.29 119.566C1280.14 119.566 1277.59 122.12 1277.59 125.269C1277.59 128.419 1280.14 130.973 1283.29 130.973Z" fill="#C5CFD6"/>
<g opacity="0.345889">
<path opacity="0.345889" fill-rule="evenodd" clip-rule="evenodd" d="M941.407 593.695C931.576 483.836 404.112 271.798 306.19 375.854C208.268 479.909 302.407 675.195 507.616 725.203C712.824 775.21 951.238 703.553 941.407 593.695Z" fill="#F2F2F2"/>
<path opacity="0.345889" fill-rule="evenodd" clip-rule="evenodd" d="M615.391 665.076C624.197 571.747 1096.68 391.612 1184.39 480.011C1272.11 568.411 1249.9 754.349 1066.09 796.832C882.27 839.316 606.585 758.405 615.391 665.076Z" fill="#DDE3E9"/>
</g>
<path d="M332.157 298.959C365.625 298.959 392.755 284.596 392.755 266.878C392.755 249.16 365.625 234.797 332.157 234.797C298.69 234.797 271.56 249.16 271.56 266.878C271.56 284.596 298.69 298.959 332.157 298.959Z" fill="#F2F2F2"/>
<path fill-rule="evenodd" clip-rule="evenodd" d="M402.736 288.978C402.736 249.605 371.137 217.687 332.158 217.687C293.178 217.687 261.579 249.605 261.579 288.978" fill="#DDE3E9"/>
<path d="M335.722 0H328.593V228.133H335.722V0Z" fill="#DDE3E9"/>
<g opacity="0.7">
<g opacity="0.7">
<path opacity="0.7" d="M442.66 226.707C467.676 226.707 487.955 215.116 487.955 200.817C487.955 186.518 467.676 174.927 442.66 174.927C417.644 174.927 397.365 186.518 397.365 200.817C397.365 215.116 417.644 226.707 442.66 226.707Z" fill="#F2F2F2"/>
<path opacity="0.7" fill-rule="evenodd" clip-rule="evenodd" d="M495.415 218.653C495.415 186.878 471.796 161.119 442.66 161.119C413.523 161.119 389.904 186.878 389.904 218.653" fill="#DDE3E9"/>
</g>
<path opacity="0.7" d="M446.937 0H439.808V193.913H446.937V0Z" fill="#DDE3E9"/>
</g>
<path d="M1282.27 362.981L1308.75 336.489C1313.2 332.033 1320.42 332.032 1324.88 336.485C1324.88 336.487 1324.88 336.488 1324.88 336.489L1395.36 407.007C1399.64 411.285 1402.04 417.086 1402.04 423.135V890.202" stroke="#CBCBCB" stroke-width="8"/>
<path d="M1439.11 888.777H1363.54C1361.18 888.777 1359.27 890.692 1359.27 893.054V894.48C1359.27 896.842 1361.18 898.757 1363.54 898.757H1439.11C1441.47 898.757 1443.39 896.842 1443.39 894.48V893.054C1443.39 890.692 1441.47 888.777 1439.11 888.777Z" fill="#AFB9C5"/>
<path fill-rule="evenodd" clip-rule="evenodd" d="M1298.19 347.437C1316.57 365.813 1316.57 395.605 1298.19 413.98L1269.96 442.21L1203.42 375.668L1231.65 347.437C1250.03 329.062 1279.82 329.062 1298.19 347.437Z" fill="#C5CFD6"/>
<path d="M1231.27 414.726C1249.64 433.101 1267.47 445.063 1271.09 441.444C1274.71 437.824 1262.75 419.994 1244.37 401.619C1226 383.244 1208.17 371.282 1204.55 374.901C1200.93 378.521 1212.89 396.351 1231.27 414.726Z" fill="#F2F2F2"/>
<path fill-rule="evenodd" clip-rule="evenodd" d="M67.382 560.799C71.4664 560.3 75.8257 560.476 79.624 562.088C87.7009 565.517 89.9968 575.059 89.886 582.814C89.7666 591.162 87.9939 600.28 94.3404 607.005C97.2577 610.098 100.887 612.464 103.751 615.613C106.812 618.978 109.214 622.828 110.992 626.963C114.257 634.557 115.86 643.488 112.874 651.455C110.245 658.469 103.631 664.8 105.06 672.776C106.551 681.096 114.94 687.457 120.184 693.654C126.119 700.668 131.584 709.631 132.482 718.829C133.343 727.643 129.506 736.557 123.618 743.22C111.853 756.534 94.1694 763.06 76.3385 763.02C68.768 763.002 60.1966 762.661 53.6635 758.592C51.6443 757.335 50.5791 755.924 49.3787 753.963C48.3025 752.204 46.8808 751.06 45.2352 749.816C41.6199 747.083 39.009 743.399 37.3428 739.276C30.8725 723.259 36.0439 703.446 45.1008 689.223C47.2469 685.854 49.004 682.611 47.9614 678.595C46.8734 674.402 44.1994 670.621 41.8343 667.017C39.4972 663.455 36.8291 660.057 35.0025 656.206C33.0893 652.172 32.5506 647.947 32.8886 643.532C33.5239 635.239 37.1041 627.585 42.1728 620.916C47.055 614.491 52.7874 608.344 52.8002 599.926C52.8143 591.004 46.8497 583.067 49.3907 573.996C50.4429 570.24 52.5562 566.386 55.9619 564.134C59.2281 561.975 63.5406 561.268 67.382 560.799Z" fill="#DDE3E9"/>
<path fill-rule="evenodd" clip-rule="evenodd" d="M64.7132 575.062C64.7898 573.864 66.2112 573.145 67.3301 573.458C68.803 573.869 68.7746 575.246 68.7358 576.472C68.6166 580.24 69.162 583.903 70.068 587.559C71.9508 595.162 75.4306 602.167 78.1874 609.469C80.9418 616.766 82.2348 624.3 80.619 632.021C79.0957 639.301 76.7026 646.392 75.1436 653.681C73.7695 660.105 72.3075 666.88 74.4 673.288C76.4135 679.456 80.8652 684.479 84.0708 690.054C90.7067 701.593 93.6507 714.394 94.0444 727.567C94.2269 733.684 94.0626 739.858 92.6435 745.858C91.8267 749.312 90.729 753.981 87.7686 756.366C86.4035 757.466 84.0687 757.846 82.9198 756.217C81.8411 754.69 82.7874 752.325 83.1298 750.696C84.6129 743.648 84.9112 736.445 84.5562 729.287C84.2125 722.355 83.3935 715.434 81.2116 708.813C79.1865 702.669 76.11 697.15 72.4892 691.775C68.7997 686.297 64.964 680.808 63.4395 674.318C61.8905 667.726 63.1489 661.019 64.8315 654.553C66.6109 647.714 68.9417 641.071 71.3513 634.417C73.6995 627.934 74.5318 621.799 73.2355 615.013C70.6747 601.607 63.8202 589.023 64.7132 575.062Z" fill="#C5CFD6"/>
<path fill-rule="evenodd" clip-rule="evenodd" d="M175.224 577.066C180.278 578.601 185.298 581.077 188.901 584.96C196.562 593.216 194.212 605.695 189.982 614.81C185.43 624.62 178.532 634.48 182.421 645.736C184.208 650.91 187.213 655.597 188.909 660.811C190.721 666.383 191.502 672.186 191.403 678.001C191.218 688.681 188.378 700.076 180.665 707.945C173.874 714.872 162.77 718.919 160.23 729.094C157.581 739.71 164.058 751.596 166.933 761.653C170.188 773.035 171.86 786.479 168.051 797.823C164.402 808.695 155.19 817.241 144.762 822.058C123.927 831.683 99.7351 830.202 78.8426 820.878C69.9724 816.919 60.0998 812.055 54.5874 803.845C52.8838 801.308 52.38 799.085 52.0087 796.142C51.676 793.502 50.6131 791.41 49.3407 789.082C46.5449 783.969 45.4297 778.254 45.6549 772.511C46.5314 750.204 63.0698 729.461 81.2101 717.353C85.5083 714.485 89.283 711.564 90.1831 706.272C91.123 700.748 89.9855 694.884 89.1163 689.392C88.2577 683.964 86.9243 678.558 86.8173 673.053C86.7057 667.287 88.3067 662.011 91.0369 656.965C96.1657 647.487 104.41 640.299 113.881 635.048C123.003 629.99 132.975 625.702 137.44 615.753C142.172 605.209 139.371 592.72 147.146 583.314C150.366 579.42 154.881 575.962 160.066 575.07C165.039 574.215 170.47 575.623 175.224 577.066Z" fill="#DDE3E9"/>
<path fill-rule="evenodd" clip-rule="evenodd" d="M164.899 594.502C165.616 593.124 167.655 593.017 168.799 593.974C170.306 595.234 169.552 596.849 168.864 598.28C166.751 602.681 165.471 607.304 164.615 612.109C162.835 622.099 163.236 632.218 162.635 642.311C162.034 652.396 159.6 661.995 153.667 670.292C148.073 678.114 141.561 685.258 135.921 693.073C130.949 699.96 125.692 707.217 124.782 715.902C123.906 724.262 126.481 732.544 127.31 740.825C129.026 757.968 125.764 774.671 119.325 790.478C116.335 797.818 112.91 805.042 108.108 811.404C105.344 815.067 101.615 820.02 96.9044 821.293C94.7321 821.88 91.8028 821.107 91.3124 818.576C90.8512 816.201 93.1963 813.896 94.4495 812.148C99.8752 804.578 103.997 796.204 107.33 787.542C110.559 779.152 113.226 770.527 114.142 761.542C114.992 753.205 114.285 745.057 112.866 736.794C111.421 728.373 109.81 719.862 111.427 711.377C113.068 702.759 118.052 695.476 123.406 688.701C129.068 681.534 135.273 674.889 141.575 668.272C147.716 661.825 151.903 654.996 153.941 646.281C157.968 629.062 156.543 610.568 164.899 594.502Z" fill="#C5CFD6"/>
<path fill-rule="evenodd" clip-rule="evenodd" d="M18.9721 640.399C27.3764 640.399 34.7651 644.853 39.8564 651.175C45.8163 658.575 47.02 667.612 49.4401 676.432C50.6443 680.821 52.7155 685.179 56.3451 688.161C59.6465 690.873 63.8375 691.415 67.789 692.741C75.6863 695.389 82.0633 701.767 84.5817 709.551C87.6542 719.045 84.3999 728.62 84.9602 738.241C85.4746 747.078 94.187 752.591 101.197 756.826C108.109 761.003 114.336 764.913 116.417 773.051C118.625 781.681 119.365 791.314 116.308 799.839C111.217 814.035 96.3185 820.285 81.9227 821.255C68.8579 822.134 52.4306 820.753 42.6191 811.27C36.748 805.595 34.6218 797.658 34.8856 789.762C35.0495 784.851 36.0222 779.987 37.2798 775.242C38.1711 771.878 39.3754 768.53 39.7184 765.054C40.6303 755.809 32.0849 754.033 24.8109 751.494C15.5677 748.268 9.09662 742.174 4.59687 733.684C0.406365 725.78 -1.35188 716.906 1.1602 708.203C2.4432 703.759 4.77026 699.727 7.92622 696.298C9.31548 694.788 11.2736 693.53 12.5275 691.944C13.6979 690.463 13.4431 688.544 13.0397 686.809C11.1747 678.797 5.36392 672.163 3.28585 664.165C1.40972 656.946 2.5188 647.962 9.11883 643.304C11.9703 641.292 15.4868 640.421 18.9721 640.399Z" fill="#C5CFD6"/>
<path fill-rule="evenodd" clip-rule="evenodd" d="M30.424 661.275C39.3316 670.763 41.7528 683.637 42.4634 696.115C42.8615 703.112 42.4472 710.492 44.5028 717.278C46.2617 723.087 50.3852 727.527 54.6355 731.724C63.1912 740.172 72.7329 748.76 75.2354 760.986C76.7037 768.161 75.7126 775.573 77.7415 782.669C79.5864 789.119 82.8346 795.456 86.7855 800.902C89.9665 805.288 94.111 808.646 97.5883 812.735C98.6492 813.983 100.169 815.82 99.731 817.582C99.2187 819.646 96.5904 820.299 94.7256 819.975C90.3777 819.219 86.7178 815.068 83.875 812.049C79.718 807.636 76.1856 802.889 73.3144 797.564C70.1271 791.65 67.5606 785.375 66.4641 778.741C65.3261 771.858 65.8925 764.685 63.294 758.08C58.9215 746.965 48.3158 740.406 40.6479 731.744C31.0942 720.949 32.519 707.515 33.4976 694.237C34.0351 686.94 34.5695 678.699 30.8824 672.037C29.4748 669.494 26.3368 667.123 25.7316 664.232C25.1773 661.584 28.2026 658.907 30.424 661.275Z" fill="#AFB9C5"/>
<path fill-rule="evenodd" clip-rule="evenodd" d="M39.9233 817.202C39.9239 871.467 48.7795 899.9 95.5309 899.9C142.282 899.9 151.138 871.467 151.138 817.202H39.9233Z" fill="#89C5CC"/>
<path d="M368.476 738.639H319.998C318.423 738.639 317.146 739.915 317.146 741.49V748.619C317.146 750.194 318.423 751.471 319.998 751.471H368.476C370.051 751.471 371.328 750.194 371.328 748.619V741.49C371.328 739.915 370.051 738.639 368.476 738.639Z" fill="#AFB9C5"/>
<path fill-rule="evenodd" clip-rule="evenodd" d="M331.404 697.289C337.526 677.45 340.956 656.537 341.695 634.553H345.663H348.205C348.944 656.537 352.374 677.45 358.495 697.289H367.763C379.969 697.289 389.864 707.184 389.864 719.39C389.864 731.595 379.969 741.49 367.763 741.49H320.711C308.505 741.49 298.61 731.595 298.61 719.39C298.61 707.184 308.505 697.289 320.711 697.289H331.404Z" fill="#DDE3E9"/>
<path fill-rule="evenodd" clip-rule="evenodd" d="M293.794 535.712C310.133 534.117 326.472 533.319 342.811 533.319C359.15 533.319 375.489 534.117 391.828 535.712L398.419 649.001C379.883 650.775 361.347 651.663 342.811 651.663C324.275 651.663 305.739 650.775 287.204 649.001L293.794 535.712Z" fill="#C5CFD6"/>
<path fill-rule="evenodd" clip-rule="evenodd" d="M284.352 751.471H402.696H432.638V899.758H402.696V782.839H284.352V899.758H254.409V751.471H284.352Z" fill="#F2F2F2"/>
<path fill-rule="evenodd" clip-rule="evenodd" d="M1014.96 497.97C1027.56 527.897 1048.96 548.69 1060.3 579.808C1067.03 598.262 1069.83 618.326 1070 638.876C1070.09 650.038 1069.9 661.207 1069.85 672.368C1069.8 683.253 1069.5 694.069 1068.58 704.884C1067.65 715.757 1066.61 726.5 1066.15 737.44C1065.79 745.964 1065.63 755.878 1062.74 763.653C1060.44 769.837 1054.6 770.743 1053.05 763.243C1052.19 759.074 1052.3 754.42 1052.4 750.135C1052.52 744.639 1052.84 739.15 1053 733.654C1053.66 711.599 1052.81 689.541 1053.25 667.478C1053.68 645.921 1056.45 624.388 1053.39 602.975C1050.86 585.293 1044.43 570.109 1037.03 555.552C1029.92 541.547 1022.18 527.882 1017.38 511.952C1016 507.377 1014.93 502.636 1014.42 497.716C1014.64 497.612 1014.82 497.696 1014.96 497.97Z" fill="#C1DEE2"/>
<path fill-rule="evenodd" clip-rule="evenodd" d="M1011.53 557.012C1014.02 558.813 1015.42 561.447 1017.1 564.046C1019.2 567.278 1021.66 570.195 1023.76 573.429C1028.13 580.171 1031.97 587.327 1035.95 594.342C1043.51 607.658 1049.25 621.85 1052.1 637.255C1055.05 653.219 1055.84 669.697 1057.08 685.9C1058.39 703.073 1059.71 720.371 1059.88 737.61C1059.96 745.333 1060.38 753.533 1059.45 761.202C1058.87 765.976 1056.72 770.045 1051.86 770.007C1041.54 769.925 1036.7 758.496 1034.68 749.124C1031.7 735.323 1031.1 720.663 1031.57 706.549C1032.14 689.53 1035.1 672.767 1036.38 655.814C1037.73 637.867 1036.97 620.238 1030.8 603.34C1027.68 594.8 1024.06 586.466 1020.81 577.983C1019.43 574.371 1018.3 570.661 1016.43 567.298C1014.35 563.557 1011.77 560.161 1010.14 556.132C1010.6 556.426 1011.07 556.719 1011.53 557.012Z" fill="#89C5CC"/>
<path fill-rule="evenodd" clip-rule="evenodd" d="M1130.39 521.224C1130.7 520.978 1131.02 520.733 1131.34 520.486C1130.43 524.325 1128.78 527.444 1127.52 530.954C1126.39 534.109 1125.82 537.679 1125.06 541.128C1123.27 549.228 1121.2 557.145 1119.51 565.314C1116.17 581.479 1116.8 598.893 1118.99 616.827C1121.06 633.768 1124.34 650.683 1125.9 667.62C1127.19 681.667 1127.75 696.151 1126.52 709.553C1125.68 718.655 1122.93 729.522 1115.44 728.603C1111.91 728.171 1110.07 723.926 1109.33 719.133C1108.14 711.436 1107.89 703.343 1107.42 695.689C1106.39 678.605 1106.18 661.574 1105.98 644.665C1105.78 628.713 1105.25 612.444 1106.32 596.893C1107.34 581.887 1110.56 568.365 1115.16 555.889C1117.58 549.316 1119.89 542.59 1122.61 536.325C1123.91 533.32 1125.51 530.665 1126.81 527.662C1127.86 525.247 1128.7 522.769 1130.39 521.224Z" fill="#C1DEE2"/>
<path fill-rule="evenodd" clip-rule="evenodd" d="M1014.72 606.466C1016.08 604.176 1019.08 611.73 1019.54 612.68C1019.35 612.208 1019.15 611.736 1018.96 611.264C1021.67 615.767 1024.14 620.455 1025.68 625.619C1027.21 630.73 1028.52 635.945 1029.95 641.093C1032.63 650.752 1036.09 660.136 1038.52 669.882C1040.89 679.378 1041.49 688.714 1040.92 698.537C1040.32 708.747 1039.96 719.113 1040.65 729.317C1040.98 734.19 1042.57 738.729 1043.65 743.421C1044.74 748.118 1045.6 752.877 1046.88 757.515C1047.18 756.911 1047.21 758.931 1047.21 759.084C1047.2 760.243 1047.04 761.214 1046.67 762.313C1045.71 765.138 1043.92 767.539 1041.19 768.318C1036.26 769.726 1031.69 765.243 1030.1 760.509C1027.82 753.717 1026.56 746.211 1025.48 739.072C1024.48 732.526 1024.24 725.94 1024.54 719.304C1025.12 706.216 1027.49 693.3 1028.13 680.216C1028.83 665.972 1026.01 652.589 1023.64 638.723C1022.51 632.042 1021.42 625.424 1019.2 619.059C1018.31 616.482 1017.14 614.207 1015.91 611.827C1015.21 610.473 1013.8 608.057 1014.72 606.466Z" fill="#C1DEE2"/>
<path fill-rule="evenodd" clip-rule="evenodd" d="M1054.7 584.217C1054.14 600.535 1053.16 616.73 1050.99 632.876C1048.76 649.353 1046.21 665.774 1044.08 682.266C1042 698.319 1039.82 714.639 1040.11 730.917C1040.32 742.907 1038.34 763.189 1051.65 769.107C1065.14 775.1 1068.03 749.508 1068.92 741.061C1070.61 724.855 1070.06 708.478 1069.24 692.183C1068.39 675.459 1066.98 658.82 1065.23 642.158C1063.29 623.649 1061.77 605.057 1060.54 586.496C1059.94 577.316 1059.79 568.15 1059.96 558.967C1060.11 550.301 1059.78 541.546 1056.7 533.319C1056.54 533.436 1056.38 533.553 1056.22 533.669" fill="#69A1AC"/>
<path fill-rule="evenodd" clip-rule="evenodd" d="M1124.33 635.915C1121.9 639.448 1119.45 642.947 1117.16 646.69C1113.07 653.386 1109.36 660.833 1108.24 670.408C1105.91 690.446 1107.78 712.088 1108.24 732.739C1108.33 736.96 1107.79 741.052 1109.46 745.068C1110.97 748.71 1113.79 751.486 1116.47 751.471C1122.23 751.438 1121.35 737.349 1121.36 731.147C1121.38 720.277 1120.16 709.298 1120.26 698.438C1120.37 687.68 1121.02 676.892 1122.58 666.674C1124.16 656.332 1126.47 646.401 1129.52 637.133C1129.95 635.847 1132.99 625.909 1130.12 627.621" fill="#89C5CC"/>
<path fill-rule="evenodd" clip-rule="evenodd" d="M1098.92 529.041C1095.13 529.041 1095.16 547.899 1095.04 550.321C1094.63 559.063 1094.73 567.806 1094.47 576.549C1093.9 595.629 1093.2 614.876 1090.33 633.735C1088.79 643.887 1087 653.995 1085.08 664.07C1083.15 674.175 1080.56 684.267 1079.29 694.5C1078.07 704.337 1078.76 714.367 1078.93 724.252C1079.09 734.197 1079.39 744.162 1080.7 754.02C1081.02 756.453 1081.39 758.878 1081.8 761.297C1082.13 763.312 1081.94 765.811 1082.51 767.727C1083.42 770.794 1087.32 771.798 1089.96 771.319C1097.07 770.019 1101.62 761.081 1104.05 754.55C1107.16 746.211 1108.81 737.166 1110.43 728.378C1112.27 718.422 1113.35 708.314 1113.86 698.178C1114.89 677.577 1113.57 656.955 1112.09 636.421C1111.27 625.001 1110.32 613.631 1108.87 602.282C1107.43 590.981 1105.58 579.73 1104.37 568.396C1103.49 560.159 1102.63 551.912 1102.06 543.644C1101.92 541.672 1101.81 529.041 1098.92 529.041Z" fill="#69A1AC"/>
<path fill-rule="evenodd" clip-rule="evenodd" d="M1094.18 666.119C1093.56 646.32 1085.6 559.353 1083.79 535.411C1083.34 529.418 1078.98 504.466 1078.42 497.673C1076.88 499.593 1077.01 529.482 1077.03 536.35C1077.05 543.144 1076.21 549.825 1075.77 556.582C1075.33 563.476 1065.14 652.519 1063.82 659.144C1061.18 672.324 1059.42 685.849 1058.06 699.325C1056.74 712.459 1054.68 726.316 1056.45 739.52C1056.86 742.559 1057.51 745.55 1058.55 748.343C1059.69 751.36 1060.46 754.15 1061.37 757.307C1062.84 762.392 1065.48 766.855 1069.55 768.954C1077.89 773.259 1082.37 763.514 1084.64 755.031C1088.27 741.483 1090.59 727.713 1091.68 713.485C1092.89 697.743 1094.67 681.969 1094.18 666.119Z" fill="#89C5CC"/>
<path d="M1132.76 724.38H1008.71C1007.14 724.38 1005.86 725.657 1005.86 727.232V851.279C1005.86 852.854 1007.14 854.131 1008.71 854.131H1132.76C1134.34 854.131 1135.61 852.854 1135.61 851.279V727.232C1135.61 725.657 1134.34 724.38 1132.76 724.38Z" fill="white"/>
<path d="M1003.01 738.638H994.457C992.882 738.638 991.605 739.915 991.605 741.49V896.906C991.605 898.481 992.882 899.758 994.457 899.758H1003.01C1004.59 899.758 1005.86 898.481 1005.86 896.906V741.49C1005.86 739.915 1004.59 738.638 1003.01 738.638Z" fill="#C5CFD6"/>
<path d="M1074.3 738.638H1065.75C1064.17 738.638 1062.9 739.915 1062.9 741.49V896.906C1062.9 898.481 1064.17 899.758 1065.75 899.758H1074.3C1075.88 899.758 1077.15 898.481 1077.15 896.906V741.49C1077.15 739.915 1075.88 738.638 1074.3 738.638Z" fill="#C5CFD6"/>
<path d="M1147.02 738.638H1138.47C1136.89 738.638 1135.61 739.915 1135.61 741.49V896.906C1135.61 898.481 1136.89 899.758 1138.47 899.758H1147.02C1148.6 899.758 1149.87 898.481 1149.87 896.906V741.49C1149.87 739.915 1148.6 738.638 1147.02 738.638Z" fill="#C5CFD6"/>
<path fill-rule="evenodd" clip-rule="evenodd" d="M1317.98 534.068C1323.7 527.348 1327.58 519.112 1326.93 509.883C1325.07 483.293 1288.05 489.142 1280.85 502.563C1273.65 515.983 1274.51 550.026 1283.81 552.424C1287.52 553.381 1295.43 551.038 1303.47 546.188L1298.42 581.917H1328.24L1317.98 534.068Z" fill="#B28B67"/>
<path fill-rule="evenodd" clip-rule="evenodd" d="M1267.64 483.958C1268.26 481.788 1269.92 479.929 1272.16 479.378C1272.7 479.244 1273.26 479.19 1273.82 479.213C1274.02 479.221 1274.08 479.278 1274.17 479.138C1274.24 479.034 1274.24 478.781 1274.27 478.659C1274.36 478.279 1274.47 477.904 1274.61 477.539C1275.07 476.294 1275.86 475.191 1276.81 474.263C1278.58 472.526 1280.98 471.327 1283.47 471.11C1284.84 470.991 1286.19 471.213 1287.48 471.656C1288.15 471.886 1288.79 472.172 1289.43 472.488C1289.61 472.583 1290.23 473.049 1290.42 473.019C1290.63 472.986 1291.05 472.463 1291.23 472.332C1293.34 470.71 1295.95 470.072 1298.58 470.092C1301.55 470.114 1304.42 470.262 1306.9 472.074C1307.42 472.458 1307.92 472.878 1308.4 473.32C1308.65 473.553 1308.89 473.794 1309.12 474.046C1309.26 474.197 1309.4 474.353 1309.53 474.512C1309.75 474.782 1309.71 474.871 1310.02 474.683C1311.22 473.958 1312.6 473.619 1313.99 473.79C1314.82 473.892 1315.62 474.14 1316.39 474.467C1316.65 474.578 1317.25 475.021 1317.53 475.026C1317.8 475.03 1318.4 474.619 1318.68 474.514C1320.21 473.95 1321.86 473.81 1323.46 474.071C1325.12 474.341 1326.75 475.002 1328.16 475.917C1328.83 476.357 1329.42 476.844 1329.9 477.498C1330.1 477.781 1330.29 478.079 1330.52 478.341C1330.65 478.494 1330.92 478.652 1331 478.846C1330.95 478.73 1332.81 478.014 1332.99 477.968C1333.92 477.724 1334.87 477.773 1335.78 478.074C1337.5 478.64 1338.98 479.909 1340.2 481.21C1340.82 481.878 1341.37 482.617 1341.83 483.404C1342.05 483.781 1342.26 484.169 1342.44 484.565C1342.53 484.757 1342.59 484.997 1342.71 485.17C1342.87 485.392 1342.97 485.397 1343.25 485.494C1344.65 485.987 1345.94 486.821 1346.91 487.949C1347.9 489.09 1348.54 490.494 1348.81 491.974C1348.83 492.061 1348.84 492.422 1348.89 492.469C1348.96 492.534 1349.24 492.506 1349.35 492.518C1349.72 492.562 1350.09 492.626 1350.45 492.712C1351.12 492.871 1351.77 493.104 1352.39 493.409C1354.79 494.598 1356.51 496.827 1357.35 499.335C1358.23 501.967 1358.22 504.983 1357.16 507.566C1356.99 507.983 1356.79 508.388 1356.55 508.771C1356.4 509.007 1356.36 509.007 1356.45 509.254C1356.56 509.528 1356.75 509.795 1356.88 510.063C1357.29 510.939 1357.57 511.867 1357.75 512.815C1358.05 514.37 1358.2 516.005 1357.9 517.572C1357.77 518.3 1357.53 519.011 1357.17 519.659C1356.99 519.99 1356.77 520.303 1356.53 520.593C1356.4 520.744 1356.27 520.887 1356.13 521.025C1356.04 521.104 1355.94 521.173 1355.87 521.261C1355.7 521.475 1355.67 521.299 1355.76 521.613C1355.88 522.053 1356.15 522.487 1356.32 522.915C1356.49 523.356 1356.64 523.804 1356.78 524.255C1357.07 525.17 1357.32 526.1 1357.47 527.047C1357.76 528.866 1357.71 530.803 1356.85 532.471C1356.48 533.185 1355.95 533.811 1355.31 534.298C1355 534.536 1354.66 534.742 1354.31 534.911C1354.12 534.997 1353.89 535.035 1353.81 535.211C1353.72 535.402 1353.85 535.779 1353.88 535.992C1354.15 537.841 1354.28 539.782 1353.73 541.594C1353.22 543.264 1352.11 544.737 1350.66 545.713C1347.85 547.606 1344.07 547.499 1341.12 545.984C1340.35 545.589 1339.63 545.098 1338.99 544.52C1337.35 546.72 1333.99 546.65 1331.6 546.023C1328.63 545.242 1326.24 543.173 1324.86 540.455C1322.98 542.745 1319.03 542.002 1317.73 539.517C1317.41 538.909 1317.22 538.239 1317.13 537.561C1317.08 537.205 1317.11 536.845 1317.07 536.491C1317.03 536.041 1316.73 535.603 1316.55 535.167C1316.22 534.318 1316.01 533.441 1316 532.526C1315.99 532.048 1316.05 531.582 1316.1 531.108C1316.14 530.681 1316.02 530.284 1315.95 529.863C1316.72 529.988 1317.65 529.782 1318.37 529.561C1319.07 529.344 1319.73 528.772 1320.23 528.25C1321.39 527.037 1322.09 525.447 1322.58 523.865C1323.64 520.391 1323.2 516.224 1319.71 514.318C1318.08 513.43 1313.21 513.433 1311.27 513.872C1309.23 514.334 1306.92 518.831 1306.8 519.253C1306.73 519.515 1306.77 519.839 1306.53 520.013C1306 520.396 1305.13 519.731 1304.74 519.403C1304.07 518.836 1303.59 518.082 1303.17 517.318C1302.27 515.654 1301.54 513.869 1301.02 512.046C1300.63 510.641 1300.37 509.193 1299.85 507.823C1299.34 506.461 1298.52 505.243 1297.26 504.472C1295.88 503.632 1294.3 503.19 1292.79 502.662C1291.29 502.139 1289.81 501.5 1288.65 500.391C1288.4 500.147 1288.15 499.888 1287.94 499.6C1287.78 499.374 1287.62 498.939 1287.37 498.796C1286.99 498.572 1286.43 499.154 1286.09 499.365C1284.45 500.407 1283.09 501.86 1281.98 503.448C1280.88 505.027 1279.98 506.546 1279.25 508.309C1278.71 509.617 1278.37 511.291 1277.41 512.363C1276.99 512.841 1273.82 513.131 1272.79 512.713C1271.77 512.295 1270.62 511.211 1270.27 510.531C1269.92 509.835 1269.83 509.071 1269.98 508.309C1270.07 507.861 1270.25 507.442 1270.35 507.002C1270.44 506.632 1270.51 506.283 1270.69 505.944C1271.03 505.302 1271.62 504.841 1272.32 504.648C1271.59 503.974 1270.98 503.167 1270.56 502.266C1270.13 501.329 1269.76 500.19 1269.65 499.162C1269.57 498.326 1269.7 497.461 1270.16 496.744C1270.64 495.991 1271.48 495.5 1272.22 495.03C1271.1 494.152 1270.14 493.083 1269.35 491.9C1267.81 489.6 1266.86 486.701 1267.64 483.958Z" fill="#191847"/>
<path fill-rule="evenodd" clip-rule="evenodd" d="M1411.49 745.929H1268.6C1257.62 745.929 1248.72 754.829 1248.72 765.809V880.12C1248.72 891.099 1257.62 900 1268.6 900H1411.49C1422.47 900 1431.37 891.099 1431.37 880.12V765.809C1431.37 754.829 1422.47 745.929 1411.49 745.929ZM1391.61 780.719C1394.36 780.719 1396.58 782.944 1396.58 785.689V860.24C1396.58 862.985 1394.36 865.21 1391.61 865.21H1288.48C1285.74 865.21 1283.51 862.985 1283.51 860.24V785.689C1283.51 782.944 1285.74 780.719 1288.48 780.719H1391.61Z" fill="#C5CFD6"/>
<path fill-rule="evenodd" clip-rule="evenodd" d="M1159.87 887.152C1175.79 851.917 1187.31 821.235 1191.93 805.047C1199.84 777.33 1205.86 752.941 1207.38 743.832C1211.01 722.113 1179.47 720.848 1175.3 731.642C1168.99 747.98 1157.98 801.659 1144.74 882.738L1159.87 887.152ZM1344.54 776.573C1329.93 770.8 1278.78 752.731 1254.11 747.62C1247.02 746.151 1240.15 744.787 1233.69 743.553C1214.48 739.888 1204.54 774.528 1223.03 777.19C1269.09 783.818 1334.38 790.663 1339.97 791.431C1347.8 792.508 1353.71 780.202 1344.54 776.573Z" fill="#B28B67"/>
<path fill-rule="evenodd" clip-rule="evenodd" d="M1221.9 734.021L1300.91 693.801V685.046H1291.51C1215.08 704.523 1176.02 717.005 1174.34 722.492C1174.32 722.551 1174.3 722.61 1174.29 722.67C1174.25 722.72 1174.21 722.771 1174.17 722.822C1159.02 743.655 1149.95 845.363 1146.97 852.979L1176 857.309C1187.11 816.135 1222.63 787.451 1221.69 738.137C1221.94 736.69 1222.01 735.319 1221.9 734.021Z" fill="#1F28CF"/>
<path fill-rule="evenodd" clip-rule="evenodd" d="M1294.34 757.907C1301.57 756.46 1308.23 755.168 1313.93 754.169C1350.72 747.716 1361.45 728.019 1355.11 685.046L1287.31 685.046C1276.24 688.227 1218.69 712.362 1188.83 725.199C1169.06 733.695 1175.29 764.323 1186.48 772.294C1186.55 772.783 1186.75 773.115 1187.11 773.264C1247.31 798.217 1294.94 785.124 1310.85 789.307L1318.21 766.093L1294.34 757.907Z" fill="#2B44FF"/>
<path fill-rule="evenodd" clip-rule="evenodd" d="M1339.54 772.883C1343.49 773.261 1346.29 773.853 1347.94 774.661C1349.96 775.643 1352.73 777.412 1356.27 779.967C1355.13 782.303 1344.89 803.299 1325.55 842.954C1319.34 841.952 1316.88 839.582 1318.16 835.845C1319.45 832.108 1320.49 828.989 1321.28 826.487L1322.51 790.845C1322.53 790.159 1323.11 789.622 1323.79 789.646C1323.81 789.646 1323.82 789.647 1323.83 789.648L1329.31 789.992C1332.43 787.471 1334.48 785.189 1335.48 783.148C1336.29 781.49 1336.73 778.873 1336.82 775.298L1336.82 775.298C1336.85 773.926 1337.99 772.84 1339.36 772.873C1339.42 772.874 1339.48 772.878 1339.54 772.883Z" fill="#E4E4E4"/>
<path fill-rule="evenodd" clip-rule="evenodd" d="M1167.12 880.619C1168.51 884.33 1169.2 887.106 1169.2 888.949C1169.2 891.189 1168.83 894.459 1168.08 898.757C1165.48 898.757 1142.12 898.757 1098 898.757C1096.18 892.737 1097.23 889.487 1101.16 889.007C1105.08 888.526 1108.34 888.093 1110.94 887.706L1143.51 873.185C1144.13 872.906 1144.87 873.187 1145.15 873.814C1145.15 873.825 1145.16 873.836 1145.16 873.847L1147.26 878.925C1150.89 880.62 1153.84 881.468 1156.11 881.468C1157.96 881.468 1160.5 880.722 1163.75 879.232L1163.75 879.232C1165 878.66 1166.48 879.208 1167.05 880.455C1167.07 880.509 1167.1 880.564 1167.12 880.619Z" fill="#E4E4E4"/>
<path fill-rule="evenodd" clip-rule="evenodd" d="M1228.79 665.318L1193.59 699.655C1183.35 704.023 1174.96 708.847 1168.42 714.125C1166.95 715.9 1165.34 719.3 1172.26 717.778C1179.19 716.257 1186.53 714.968 1187.84 717.219C1189.14 719.469 1185.3 722.918 1187.71 725.864C1189.31 727.828 1194.7 721.582 1203.88 707.125L1240.48 685.546L1228.79 665.318ZM1385.02 670.16L1359.05 670.262C1375.08 722.017 1383.74 749.478 1385.02 752.645C1387.89 759.77 1381.81 770.622 1379.21 776.454C1387.68 780.245 1386.78 766.203 1397.47 771.176C1407.22 775.715 1414.65 783.94 1425.92 776.984C1427.3 776.129 1428.82 772.909 1425.15 770.393C1416.01 764.125 1402.84 753.153 1401.06 749.542C1398.63 744.618 1393.28 718.157 1385.02 670.16Z" fill="#B28B67"/>
<path fill-rule="evenodd" clip-rule="evenodd" d="M1311.23 561.207L1300.48 559.364C1281.99 605.574 1249.69 647.561 1203.6 685.325L1238.43 727.641C1284.51 673.869 1312.92 618.391 1311.23 561.207Z" fill="#191847"/>
<path fill-rule="evenodd" clip-rule="evenodd" d="M1358.06 696.228H1262.39C1284.56 642.335 1295.64 596.552 1295.64 558.882L1324.5 554.582C1347.18 591.06 1353.59 635.972 1358.06 696.228Z" fill="#DDE3E9"/>
<path fill-rule="evenodd" clip-rule="evenodd" d="M1325.11 554.602C1325.11 554.596 1325.1 554.589 1325.1 554.582H1323.21C1320.96 554.66 1317.53 554.8 1312.91 555.002L1305.94 574.93C1305.2 599.228 1300.9 648.195 1293.02 721.831H1355.73C1355.57 726.917 1355.3 732.05 1354.92 737.231H1401.55C1394.58 658.535 1369.1 597.652 1325.13 554.582L1325.11 554.602V554.602Z" fill="#2F3676"/>
<path fill-rule="evenodd" clip-rule="evenodd" d="M1351.59 656.758C1349.81 688.46 1345.34 710.314 1338.18 722.321H1355.72C1356.48 699.512 1355.11 677.658 1351.59 656.758V656.758Z" fill="black" fill-opacity="0.1"/>
<path fill-rule="evenodd" clip-rule="evenodd" d="M1341.77 683.803L1310.85 669.426V683.803H1341.77Z" fill="white" fill-opacity="0.2"/>
</svg>
